HIERARCHY
ROOT root
{
  OFFSET 0.000000 0.000000 0.000000
  CHANNELS 6 Xposition Yposition Zposition Zrotation Yrotation Xrotation
  JOINT lhipjoint
  {
    OFFSET 0.000000 0.000000 0.000000
    CHANNELS 3 Zrotation Yrotation Xrotation
    JOINT lfemur
    {
      OFFSET 0.076955 -0.088858 0.062674
      CHANNELS 3 Zrotation Yrotation Xrotation
      JOINT ltibia
      {
        OFFSET 0.134602 -0.369817 0.000000
        CHANNELS 3 Zrotation Yrotation Xrotation
        JOINT lfoot
        {
          OFFSET 0.133867 -0.367797 0.000000
          CHANNELS 3 Zrotation Yrotation Xrotation
          JOINT ltoes
          {
            OFFSET 0.016413 -0.045094 0.113675
            CHANNELS 3 Zrotation Yrotation Xrotation
            End Site
            {
              OFFSET 0.000000 -0.000000 0.060917
            }
          }
        }
      }
    }
  }
  JOINT rhipjoint
  {
    OFFSET 0.000000 0.000000 0.000000
    CHANNELS 3 Zrotation Yrotation Xrotation
    JOINT rfemur
    {
      OFFSET -0.076961 -0.088859 0.062674
      CHANNELS 3 Zrotation Yrotation Xrotation
      JOINT rtibia
      {
        OFFSET -0.129575 -0.356005 0.000000
        CHANNELS 3 Zrotation Yrotation Xrotation
        JOINT rfoot
        {
          OFFSET -0.136022 -0.373719 0.000000
          CHANNELS 3 Zrotation Yrotation Xrotation
          JOINT rtoes
          {
            OFFSET -0.013093 -0.035974 0.108504
            CHANNELS 3 Zrotation Yrotation Xrotation
            End Site
            {
              OFFSET -0.000000 -0.000000 0.057326
            }
          }
        }
      }
    }
  }
  JOINT lowerback
  {
    OFFSET 0.000000 0.000000 0.000000
    CHANNELS 3 Zrotation Yrotation Xrotation
    JOINT upperback
    {
      OFFSET -0.004835 0.114922 -0.013864
      CHANNELS 3 Zrotation Yrotation Xrotation
      JOINT thorax
      {
        OFFSET -0.000021 0.116102 0.000122
        CHANNELS 3 Zrotation Yrotation Xrotation
        JOINT lowerneck
        {
          OFFSET 0.002188 0.117937 0.006733
          CHANNELS 3 Zrotation Yrotation Xrotation
          JOINT upperneck
          {
            OFFSET -0.002068 0.095682 0.017943
            CHANNELS 3 Zrotation Yrotation Xrotation
            JOINT head
            {
              OFFSET 0.000526 0.096058 -0.025972
              CHANNELS 3 Zrotation Yrotation Xrotation
              End Site
              {
                OFFSET 0.000701 0.100257 -0.010937
              }
            }
          }
        }
        JOINT lclavicle
        {
          OFFSET 0.002188 0.117937 0.006733
          CHANNELS 3 Zrotation Yrotation Xrotation
          JOINT lhumerus
          {
            OFFSET 0.211297 0.045898 -0.020685
            CHANNELS 3 Zrotation Yrotation Xrotation
            JOINT lradius
            {
              OFFSET 0.280633 -0.000000 -0.000000
              CHANNELS 3 Zrotation Yrotation Xrotation
              JOINT lwrist
              {
                OFFSET 0.189547 -0.000000 0.000000
                CHANNELS 3 Zrotation Yrotation Xrotation
                End Site
                {
                  OFFSET 0.094773 -0.000000 0.000000
                }
              }
            }
          }
        }
        JOINT rclavicle
        {
          OFFSET 0.002188 0.117937 0.006733
          CHANNELS 3 Zrotation Yrotation Xrotation
          JOINT rhumerus
          {
            OFFSET -0.211884 0.028598 -0.003683
            CHANNELS 3 Zrotation Yrotation Xrotation
            JOINT rradius
            {
              OFFSET -0.280243 -0.000000 -0.000000
              CHANNELS 3 Zrotation Yrotation Xrotation
              JOINT rwrist
              {
                OFFSET -0.189049 -0.000000 0.000000
                CHANNELS 3 Zrotation Yrotation Xrotation
                End Site
                {
                  OFFSET -0.094524 -0.000000 0.000000
                }
              }
            }
          }
        }
      }
    }
  }
}
MOTION
Frames: 8
Frame Time: 0.04166667
0.00000 0.95853 0.00000 135.23900 -84.62790 -132.71800 0.00000 -0.00000 0.00000 -18.86974 -6.40412 1.75731 0.72932 5.45645 15.21517 0.66147 14.85576 -26.97827 0.07760 1.79701 4.94499 0.00000 -0.00000 0.00000 11.18762 -1.77555 2.46179 -0.12656 -2.29325 6.31682 0.21308 -14.93343 -18.75167 -0.02318 -0.98284 2.70159 -5.98889 -1.18821 -7.68343 0.18392 -0.99961 1.89147 3.43037 -0.72885 6.42175 -13.87570 -9.95279 -16.58030 6.48042 -13.29690 30.08570 2.45681 -6.75553 14.56000 0.00000 0.00000 0.00000 -91.70857 -3.08572 22.69492 11.10507 -18.44913 -1.80903 0.00000 -0.00000 -1.86342 0.00000 0.00000 0.00000 86.63004 1.46377 18.38291 -13.00559 21.29541 -2.45532 -0.00000 0.00000 -8.75742
0.00000 0.96215 0.00000 157.70600 -84.16120 -154.31200 0.00000 -0.00000 0.00000 -16.88688 -7.30997 0.28162 0.75779 5.55958 15.51174 0.63474 16.13835 -28.17858 0.15013 2.49681 6.88081 0.00000 -0.00000 0.00000 13.11214 -0.46582 3.34061 -0.00947 -0.62836 1.72675 0.59427 -16.45722 -16.16536 -0.07975 -1.82169 5.01313 -4.78037 -0.54755 -6.05251 0.63190 -0.38773 1.27665 3.30558 -0.33647 4.76624 -13.84260 -9.86038 -16.25410 6.58362 -13.21370 29.78550 2.52703 -6.71060 14.35040 -0.00000 -0.00000 0.00000 -91.54380 -3.18534 23.30238 11.32694 -18.78765 -1.87987 0.00000 -0.00000 -2.48374 -0.00000 -0.00000 0.00000 87.46416 1.60081 15.26808 -13.34727 21.79392 -2.58079 -0.00000 0.00000 -5.56041
0.00000 0.96242 0.00000 151.93100 -83.93450 -148.44400 0.00000 -0.00000 0.00000 -17.61853 -7.56248 0.17269 0.74907 5.52820 15.42144 0.60547 16.31461 -28.16110 0.15619 2.54650 7.01860 0.00000 -0.00000 0.00000 12.21403 -0.80697 3.99811 0.00000 -0.00000 0.00000 0.72541 -17.08653 -15.37278 -0.04762 -1.40829 3.87297 -5.22468 -0.61906 -6.03420 0.41529 -0.43966 1.32219 3.32433 -0.37412 4.81182 -13.80310 -9.69565 -16.09790 6.81346 -13.03870 29.49250 2.65782 -6.60356 14.18050 0.00000 0.00000 0.00000 -91.50574 -3.36014 23.80274 11.25797 -18.68260 -1.85772 0.00000 -0.00000 -3.23028 0.00000 0.00000 0.00000 87.50649 1.87590 15.19461 -13.16770 21.53244 -2.51450 -0.00000 0.00000 -5.24399
0.00000 0.96067 0.00000 136.97500 -83.73650 -133.42100 0.00000 -0.00000 0.00000 -19.49840 -7.34297 0.67679 0.70763 5.37641 14.98534 0.61639 15.85376 -27.72791 0.10994 2.13790 5.88691 0.00000 -0.00000 0.00000 10.33724 -0.83045 1.53381 -0.07858 -1.80830 4.97617 0.44418 -16.01092 -17.54930 -0.00005 -0.04437 0.12192 -5.78951 -1.01262 -7.82237 -0.14357 -0.75950 1.85603 3.00411 -0.59649 6.42848 -13.58550 -9.72442 -16.49090 6.71319 -13.02140 29.41080 2.57089 -6.56385 14.19900 0.00000 -0.00000 0.00000 -91.58705 -3.42724 24.12919 11.42286 -18.93351 -1.91088 0.00000 -0.00000 -2.91512 0.00000 -0.00000 0.00000 87.45054 2.24113 15.46828 -13.20528 21.58725 -2.52831 -0.00000 0.00000 -5.45768
0.00000 0.96126 0.00000 135.86500 -83.96520 -132.13900 0.00000 -0.00000 0.00000 -19.36996 -7.61820 0.62509 0.66402 5.21147 14.51269 0.56366 16.00502 -27.50270 0.11637 2.19936 6.05693 0.00000 -0.00000 0.00000 10.40616 -0.69047 0.33210 -0.13766 -2.39129 6.58834 0.34480 -15.68435 -18.31770 -0.01713 0.84499 -2.32239 -5.55829 -1.04988 -7.50007 -0.18574 -0.85319 1.80759 2.82089 -0.62592 6.19582 -13.34090 -9.76177 -16.89240 6.47838 -13.02110 29.57420 2.42087 -6.55159 14.31520 -0.00000 -0.00000 0.00000 -91.56999 -3.55041 24.26990 11.30480 -18.75394 -1.87274 0.00000 -0.00000 -3.42190 -0.00000 -0.00000 0.00000 87.50116 2.42152 15.41534 -13.03786 21.34266 -2.46705 -0.00000 0.00000 -5.17431
0.00000 0.96142 0.00000 136.88100 -84.08550 -133.05600 0.00000 -0.00000 0.00000 -19.08468 -7.59328 0.40856 0.65142 5.16274 14.37332 0.52709 16.02034 -27.24300 0.13023 2.32616 6.40793 0.00000 -0.00000 0.00000 10.69202 -0.54399 -0.12297 -0.15844 -2.56471 7.06912 0.30260 -15.55914 -18.65228 -0.01114 0.68162 -1.87317 -5.57608 -1.07749 -6.57101 -0.02771 -0.97203 1.31938 2.99718 -0.65134 5.16476 -13.38520 -9.53080 -16.57380 6.23115 -12.67760 29.81290 2.41164 -6.46359 14.29110 -0.00000 -0.00000 0.00000 -91.91406 -2.73691 23.56683 11.36098 -18.83944 -1.89084 0.00000 -0.00000 -1.64735 -0.00000 -0.00000 0.00000 87.32445 1.48932 16.30218 -13.32356 21.75946 -2.57200 -0.00000 0.00000 -5.07155
0.00000 0.96156 0.00000 134.75300 -84.27870 -130.72800 0.00000 -0.00000 0.00000 -19.07805 -7.84343 -0.07069 0.68377 5.28686 14.72856 0.57028 15.77508 -27.29378 0.13570 2.37429 6.54126 0.00000 -0.00000 0.00000 10.58992 -0.90846 -0.05983 -0.12410 -2.27092 6.25498 0.39564 -15.90932 -18.03764 -0.01407 0.76580 -2.10460 -5.40627 -1.15197 -6.49213 -0.07632 -1.09095 1.23960 2.83937 -0.69965 5.04228 -13.39860 -9.48295 -16.46790 6.19398 -12.61700 29.86770 2.41557 -6.44978 14.28290 -0.00000 0.00000 0.00000 -91.86157 -3.11674 22.54455 10.80582 -17.99000 -1.71547 0.00000 0.00000 1.92316 -0.00000 0.00000 0.00000 87.25084 1.34596 16.80439 -13.42179 21.90210 -2.60853 -0.00000 0.00000 -4.16581
0.00000 0.96168 0.00000 138.68800 -84.49050 -134.66600 0.00000 -0.00000 0.00000 -18.48616 -7.95456 -0.05642 0.67890 5.26840 14.67568 0.54951 15.93891 -27.32097 0.12745 2.30129 6.33907 0.00000 -0.00000 0.00000 11.33699 -0.77937 0.00885 -0.11826 -2.21706 6.10591 0.36087 -15.64436 -18.03041 -0.00001 0.01805 -0.04958 -5.27559 -0.98531 -7.10813 0.01334 -0.82991 1.75400 2.87861 -0.59912 5.91034 -13.02610 -9.56962 -16.79140 5.98702 -12.70530 29.77520 2.24380 -6.45244 14.27280 0.00000 -0.00000 0.00000 -91.77066 -4.84577 19.01236 9.70329 -16.27413 -1.39065 0.00000 0.00000 6.09006 0.00000 -0.00000 0.00000 87.54570 2.45375 15.51801 -12.86669 21.09157 -2.40510 -0.00000 -0.00000 0.65610
